<?xml version="1.0" encoding="UTF-8" standalone="no"?>
<!-- Generator: Adobe Illustrator 19.0.0, SVG Export Plug-In . SVG Version: 6.00 Build 0)  -->

<svg
   xmlns:dc="http://purl.org/dc/elements/1.1/"
   xmlns:cc="http://creativecommons.org/ns#"
   xmlns:rdf="http://www.w3.org/1999/02/22-rdf-syntax-ns#"
   xmlns:svg="http://www.w3.org/2000/svg"
   xmlns="http://www.w3.org/2000/svg"
   xmlns:sodipodi="http://sodipodi.sourceforge.net/DTD/sodipodi-0.dtd"
   xmlns:inkscape="http://www.inkscape.org/namespaces/inkscape"
   version="1.1"
   id="Layer_1"
   x="0px"
   y="0px"
   viewBox="0 0 2719.8209 3540.8928"
   xml:space="preserve"
   inkscape:version="0.91 r13725"
   sodipodi:docname="coding_standard.svg"
   width="2719.821"
   height="3540.8931"
   inkscape:export-filename="/home/eric/data/WORK/PROJECT/UNITY/CODING_STANDARD/LOGO/coding_standard.png"
   inkscape:export-xdpi="90"
   inkscape:export-ydpi="90"><metadata
     id="metadata67"><rdf:RDF><cc:Work
         rdf:about=""><dc:format>image/svg+xml</dc:format><dc:type
           rdf:resource="http://purl.org/dc/dcmitype/StillImage" /><dc:title></dc:title></cc:Work></rdf:RDF></metadata><defs
     id="defs65" /><sodipodi:namedview
     pagecolor="#ffffff"
     bordercolor="#666666"
     borderopacity="1"
     objecttolerance="10"
     gridtolerance="10"
     guidetolerance="10"
     inkscape:pageopacity="0"
     inkscape:pageshadow="2"
     inkscape:window-width="2245"
     inkscape:window-height="1689"
     id="namedview63"
     showgrid="false"
     inkscape:zoom="0.23046876"
     inkscape:cx="1519.1052"
     inkscape:cy="2202.0572"
     inkscape:window-x="387"
     inkscape:window-y="145"
     inkscape:window-maximized="0"
     inkscape:current-layer="layer2"
     fit-margin-top="200"
     fit-margin-left="200"
     fit-margin-right="200"
     fit-margin-bottom="200"
     showguides="false"
     inkscape:guide-bbox="true"><sodipodi:guide
       position="1380.8572,2092.2317"
       orientation="1,0"
       id="guide4173" /><sodipodi:guide
       position="1471.7503,2158.9634"
       orientation="0,1"
       id="guide4175" /></sodipodi:namedview><g
     inkscape:groupmode="layer"
     id="layer2"
     inkscape:label="Logo"
     style="display:inline"
     transform="translate(-116.77086,129.57037)"><circle
       style="opacity:1;fill:#ff914e;fill-opacity:1;stroke:none;stroke-width:300;stroke-linecap:butt;stroke-linejoin:miter;stroke-miterlimit:4;stroke-dasharray:none;stroke-dashoffset:198.6486969;stroke-opacity:1"
       id="circle4303"
       cx="1497.5133"
       cy="1252.4486"
       r="266.82736" /></g><g
     inkscape:groupmode="layer"
     id="layer1"
     inkscape:label="Hidden"
     style="display:none"
     sodipodi:insensitive="true"
     transform="translate(-116.77086,129.57037)"><g
       id="g4186"><circle
         style="opacity:1;fill:#ff914e;fill-opacity:1;stroke:none;stroke-width:300;stroke-linecap:butt;stroke-linejoin:miter;stroke-miterlimit:4;stroke-dasharray:none;stroke-dashoffset:198.6486969;stroke-opacity:1"
         id="circle4188"
         cx="1497.5133"
         cy="1252.4486"
         r="1100.2792" /><circle
         r="480.70587"
         cy="1252.4486"
         cx="1497.5133"
         id="circle4190"
         style="opacity:1;fill:#ffffff;fill-opacity:1;stroke:none;stroke-width:300;stroke-linecap:butt;stroke-linejoin:miter;stroke-miterlimit:4;stroke-dasharray:none;stroke-dashoffset:198.6486969;stroke-opacity:1" /><rect
         style="opacity:1;fill:#ffffff;fill-opacity:1"
         id="rect4192"
         width="2323.6411"
         height="210.02153"
         x="331.68735"
         y="1147.2599" /><rect
         y="1392.7263"
         x="-2417.8455"
         height="210.00069"
         width="2336.2964"
         id="rect4194"
         style="opacity:1;fill:#ffffff;fill-opacity:1"
         transform="matrix(0,-1,1,0,0,0)" /><circle
         style="opacity:1;fill:#ff914e;fill-opacity:1;stroke:none;stroke-width:300;stroke-linecap:butt;stroke-linejoin:miter;stroke-miterlimit:4;stroke-dasharray:none;stroke-dashoffset:198.6486969;stroke-opacity:1"
         id="circle4196"
         cx="1497.5133"
         cy="1252.4486"
         r="266.82736" /></g></g><g
     inkscape:groupmode="layer"
     id="layer3"
     inkscape:label="Text"
     style="display:inline"
     transform="translate(-116.77086,129.57037)"><g
       id="g4184"
       transform="matrix(6.1345562,0,0,6.1345562,316.77084,70.42961)"><path
         id="path4164"
         d="m 189.07812,0 -20.01562,33 20.01562,30.734375 c 51.53125,0 93.45313,41.921875 93.45313,93.453125 l 0,126.76172 63.73437,0 0,-126.76172 C 346.26562,70.375 275.89062,0 189.07812,0 Z m 0,0"
         inkscape:connector-curvature="0"
         style="fill:#b4d2d7" /><path
         id="path4166"
         d="M 189.07812,0 C 102.26563,0 31.890625,70.375 31.890625,157.1875 l 0,22.94531 63.734375,0 0,-22.94531 c 0,-51.53125 41.92578,-93.453125 93.45312,-93.453125 z m 0,0"
         inkscape:connector-curvature="0"
         style="fill:#e1ebf0" /><path
         id="path4168"
         d="m 378.15625,243.91797 -189.07813,0 L 169.0625,377.96094 189.07812,512 l 189.07813,0 z m 0,0"
         inkscape:connector-curvature="0"
         style="fill:#ff9f22" /><path
         id="path4170"
         d="m 0,243.91797 189.07812,0 0,268.08203 L 0,512 Z m 0,0"
         inkscape:connector-curvature="0"
         style="fill:#ffda44" /><path
         id="path4172"
         d="m 116.90625,463.97266 -67.679688,-86.01563 67.679688,-86.01562 23.57812,18.55468 -53.085932,67.46094 53.085932,67.46484 z m 0,0"
         inkscape:connector-curvature="0"
         style="fill:#0b799d" /><path
         id="path4174"
         d="m 261.25,463.97266 -23.57422,-18.55079 53.08594,-67.46484 -53.08594,-67.46094 23.57422,-18.55468 67.68359,86.01562 z m 0,0"
         inkscape:connector-curvature="0"
         style="fill:#07485e" /><path
         id="path4176"
         d="m 174.07812,291.98437 30,0 0,171.94922 -30,0 z m 0,0"
         inkscape:connector-curvature="0"
         style="fill:#0b799d" /></g></g><g
     id="g33"
     transform="translate(-175.04379,3065.3423)" /><g
     id="g35"
     transform="translate(-175.04379,3065.3423)" /><g
     id="g37"
     transform="translate(-175.04379,3065.3423)" /><g
     id="g39"
     transform="translate(-175.04379,3065.3423)" /><g
     id="g41"
     transform="translate(-175.04379,3065.3423)" /><g
     id="g43"
     transform="translate(-175.04379,3065.3423)" /><g
     id="g45"
     transform="translate(-175.04379,3065.3423)" /><g
     id="g47"
     transform="translate(-175.04379,3065.3423)" /><g
     id="g49"
     transform="translate(-175.04379,3065.3423)" /><g
     id="g51"
     transform="translate(-175.04379,3065.3423)" /><g
     id="g53"
     transform="translate(-175.04379,3065.3423)" /><g
     id="g55"
     transform="translate(-175.04379,3065.3423)" /><g
     id="g57"
     transform="translate(-175.04379,3065.3423)" /><g
     id="g59"
     transform="translate(-175.04379,3065.3423)" /><g
     id="g61"
     transform="translate(-175.04379,3065.3423)" /></svg>