<?xml version="1.0" encoding="UTF-8" standalone="no"?>
<!-- Generator: Adobe Illustrator 19.0.0, SVG Export Plug-In . SVG Version: 6.00 Build 0)  -->

<svg
   xmlns:dc="http://purl.org/dc/elements/1.1/"
   xmlns:cc="http://creativecommons.org/ns#"
   xmlns:rdf="http://www.w3.org/1999/02/22-rdf-syntax-ns#"
   xmlns:svg="http://www.w3.org/2000/svg"
   xmlns="http://www.w3.org/2000/svg"
   xmlns:sodipodi="http://sodipodi.sourceforge.net/DTD/sodipodi-0.dtd"
   xmlns:inkscape="http://www.inkscape.org/namespaces/inkscape"
   version="1.1"
   id="Layer_1"
   x="0px"
   y="0px"
   viewBox="0 0 3426.3741 4494.1164"
   xml:space="preserve"
   inkscape:version="0.91 r13725"
   sodipodi:docname="koda.svg"
   width="3426.3743"
   height="4494.1167"
   inkscape:export-filename="/home/eric/data/WORK/PROJECT/UNITY/KODA/LOGO/koda.png"
   inkscape:export-xdpi="90"
   inkscape:export-ydpi="90"><metadata
     id="metadata67"><rdf:RDF><cc:Work
         rdf:about=""><dc:format>image/svg+xml</dc:format><dc:type
           rdf:resource="http://purl.org/dc/dcmitype/StillImage" /><dc:title /></cc:Work></rdf:RDF></metadata><defs
     id="defs65" /><sodipodi:namedview
     pagecolor="#ffffff"
     bordercolor="#666666"
     borderopacity="1"
     objecttolerance="10"
     gridtolerance="10"
     guidetolerance="10"
     inkscape:pageopacity="0"
     inkscape:pageshadow="2"
     inkscape:window-width="2245"
     inkscape:window-height="1689"
     id="namedview63"
     showgrid="false"
     inkscape:zoom="0.16296602"
     inkscape:cx="-227.85242"
     inkscape:cy="1796.6869"
     inkscape:window-x="1156"
     inkscape:window-y="162"
     inkscape:window-maximized="0"
     inkscape:current-layer="layer3"
     fit-margin-top="200"
     fit-margin-left="200"
     fit-margin-right="200"
     fit-margin-bottom="200"
     showguides="false"
     inkscape:guide-bbox="true"><sodipodi:guide
       position="1687.9537,3045.4554"
       orientation="1,0"
       id="guide4173" /><sodipodi:guide
       position="1778.8468,3112.1871"
       orientation="0,1"
       id="guide4175" /></sodipodi:namedview><g
     inkscape:groupmode="layer"
     id="layer2"
     inkscape:label="Logo"
     style="display:inline"
     transform="translate(190.32562,129.57037)" /><g
     inkscape:groupmode="layer"
     id="layer1"
     inkscape:label="Hidden"
     style="display:none"
     sodipodi:insensitive="true"
     transform="translate(190.32562,129.57037)"><g
       id="g4186"><circle
         style="opacity:1;fill:#ff914e;fill-opacity:1;stroke:none;stroke-width:300;stroke-linecap:butt;stroke-linejoin:miter;stroke-miterlimit:4;stroke-dasharray:none;stroke-dashoffset:198.6486969;stroke-opacity:1"
         id="circle4188"
         cx="1497.5133"
         cy="1252.4486"
         r="1100.2792" /><circle
         r="480.70587"
         cy="1252.4486"
         cx="1497.5133"
         id="circle4190"
         style="opacity:1;fill:#ffffff;fill-opacity:1;stroke:none;stroke-width:300;stroke-linecap:butt;stroke-linejoin:miter;stroke-miterlimit:4;stroke-dasharray:none;stroke-dashoffset:198.6486969;stroke-opacity:1" /><rect
         style="opacity:1;fill:#ffffff;fill-opacity:1"
         id="rect4192"
         width="2323.6411"
         height="210.02153"
         x="331.68735"
         y="1147.2599" /><rect
         y="1392.7263"
         x="-2417.8455"
         height="210.00069"
         width="2336.2964"
         id="rect4194"
         style="opacity:1;fill:#ffffff;fill-opacity:1"
         transform="matrix(0,-1,1,0,0,0)" /><circle
         style="opacity:1;fill:#ff914e;fill-opacity:1;stroke:none;stroke-width:300;stroke-linecap:butt;stroke-linejoin:miter;stroke-miterlimit:4;stroke-dasharray:none;stroke-dashoffset:198.6486969;stroke-opacity:1"
         id="circle4196"
         cx="1497.5133"
         cy="1252.4486"
         r="266.82736" /></g></g><g
     inkscape:groupmode="layer"
     id="layer3"
     inkscape:label="Text"
     style="display:inline"
     transform="translate(190.32562,129.57037)"><g
       id="g4886"
       transform="translate(46.18006,0)"><path
         id="path4164"
         d="m 1476.6812,70.42961 -122.787,202.44035 122.787,188.54176 c 316.1213,0 573.2935,257.17209 573.2935,573.29348 l 0,777.6269 390.982,0 0,-777.6269 c 0,-532.5562 -431.7193,-964.27559 -964.2755,-964.27559 z m 0,0"
         inkscape:connector-curvature="0"
         style="fill:#b4d2d7" /><path
         id="path4166"
         d="m 1476.6812,70.42961 c -532.55611,0 -964.27553,431.71939 -964.27553,964.27559 l 0,140.7593 390.98211,0 0,-140.7593 c 0,-316.12139 257.19602,-573.29348 573.29342,-573.29348 z m 0,0"
         inkscape:connector-curvature="0"
         style="fill:#e1ebf0" /><path
         id="path4168"
         d="m 2636.5916,1566.7581 -1159.9104,0 -122.787,822.2941 122.787,822.2702 1159.9104,0 z m 0,0"
         inkscape:connector-curvature="0"
         style="fill:#b4d2d7;fill-opacity:1" /><path
         id="path4170"
         d="m 316.77084,1566.7581 1159.91036,0 0,1644.5643 -1159.91036,0 z m 0,0"
         inkscape:connector-curvature="0"
         style="fill:#e1ebf0;fill-opacity:1" /><g
         id="text4174"
         style="font-style:normal;font-weight:normal;font-size:1142.89831543px;line-height:125%;font-family:sans-serif;letter-spacing:0px;word-spacing:0px;fill:#0b799d;fill-opacity:1;stroke:none;stroke-width:1px;stroke-linecap:butt;stroke-linejoin:miter;stroke-opacity:1"><path
           id="path4179"
           style="fill:#0b799d;fill-opacity:1"
           d="m 1178.0722,2835.7027 0,80.3601 -34.5995,0 q -138.9559,0 -186.39064,-41.2962 -46.87669,-41.2961 -46.87669,-164.6264 l 0,-133.3754 q 0,-84.2664 -30.13502,-116.6336 -30.13501,-32.3673 -109.37894,-32.3673 l -34.0414,0 0,-79.802 34.0414,0 q 79.80199,0 109.37894,-31.8091 30.13502,-32.3673 30.13502,-115.5176 l 0,-133.9334 q 0,-123.3303 46.87669,-164.0684 47.43474,-41.2961 186.39064,-41.2961 l 34.5995,0 0,79.8019 -37.9478,0 q -78.6859,0 -102.6823,24.5545 -23.9964,24.5545 -23.9964,103.2403 l 0,138.3979 q 0,87.6147 -25.67057,127.2367 -25.11251,39.622 -86.49865,53.5734 61.94419,15.0675 87.0567,54.6894 25.11252,39.622 25.11252,126.6787 l 0,138.3978 q 0,78.6859 23.9964,103.2404 23.9964,24.5544 102.6823,24.5544 l 37.9478,0 z"
           inkscape:connector-curvature="0" /></g><g
         transform="matrix(-1,0,0,1,2952.8238,0)"
         style="font-style:normal;font-weight:normal;font-size:1142.89831543px;line-height:125%;font-family:sans-serif;letter-spacing:0px;word-spacing:0px;fill:#0b799d;fill-opacity:1;stroke:none;stroke-width:1px;stroke-linecap:butt;stroke-linejoin:miter;stroke-opacity:1"
         id="g4181"><path
           style="fill:#0b799d;fill-opacity:1"
           inkscape:connector-curvature="0"
           d="m 1178.0722,2835.7027 0,80.3601 -34.5995,0 q -138.9559,0 -186.39064,-41.2962 -46.87669,-41.2961 -46.87669,-164.6264 l 0,-133.3754 q 0,-84.2664 -30.13502,-116.6336 -30.13501,-32.3673 -109.37894,-32.3673 l -34.0414,0 0,-79.802 34.0414,0 q 79.80199,0 109.37894,-31.8091 30.13502,-32.3673 30.13502,-115.5176 l 0,-133.9334 q 0,-123.3303 46.87669,-164.0684 47.43474,-41.2961 186.39064,-41.2961 l 34.5995,0 0,79.8019 -37.9478,0 q -78.6859,0 -102.6823,24.5545 -23.9964,24.5545 -23.9964,103.2403 l 0,138.3979 q 0,87.6147 -25.67057,127.2367 -25.11251,39.622 -86.49865,53.5734 61.94419,15.0675 87.0567,54.6894 25.11252,39.622 25.11252,126.6787 l 0,138.3978 q 0,78.6859 23.9964,103.2404 23.9964,24.5544 102.6823,24.5544 l 37.9478,0 z"
           id="path4183" /></g><circle
         r="167.05084"
         cy="2385.1533"
         cx="1476.8744"
         id="path4185"
         style="fill:#0b799d;fill-opacity:1" /></g><text
       xml:space="preserve"
       style="font-style:normal;font-weight:normal;font-size:83.65026855px;line-height:125%;font-family:sans-serif;letter-spacing:0px;word-spacing:0px;display:inline;fill:#ff662f;fill-opacity:1;stroke:none;stroke-width:1px;stroke-linecap:butt;stroke-linejoin:miter;stroke-opacity:1"
       x="10.552115"
       y="3818.124"
       id="text4236"
       sodipodi:linespacing="125%"
       transform="scale(0.91681643,1.0907309)"><tspan
         sodipodi:role="line"
         x="10.552115"
         y="3818.124"
         style="font-style:normal;font-variant:normal;font-weight:normal;font-stretch:normal;font-size:1307.03564453px;font-family:Bitsumishi;-inkscape-font-specification:Bitsumishi;fill:#ff662f;fill-opacity:1"
         id="tspan4867">KODA</tspan></text>
</g><g
     id="g33"
     transform="translate(132.05269,3065.3423)" /><g
     id="g35"
     transform="translate(132.05269,3065.3423)" /><g
     id="g37"
     transform="translate(132.05269,3065.3423)" /><g
     id="g39"
     transform="translate(132.05269,3065.3423)" /><g
     id="g41"
     transform="translate(132.05269,3065.3423)" /><g
     id="g43"
     transform="translate(132.05269,3065.3423)" /><g
     id="g45"
     transform="translate(132.05269,3065.3423)" /><g
     id="g47"
     transform="translate(132.05269,3065.3423)" /><g
     id="g49"
     transform="translate(132.05269,3065.3423)" /><g
     id="g51"
     transform="translate(132.05269,3065.3423)" /><g
     id="g53"
     transform="translate(132.05269,3065.3423)" /><g
     id="g55"
     transform="translate(132.05269,3065.3423)" /><g
     id="g57"
     transform="translate(132.05269,3065.3423)" /><g
     id="g59"
     transform="translate(132.05269,3065.3423)" /><g
     id="g61"
     transform="translate(132.05269,3065.3423)" /></svg>